<svg id="REGIO" xmlns="http://www.w3.org/2000/svg" viewBox="0 0 184.13 93.22"><path d="m0,90.2v-9.5c0-.1.1-.2.2-.2h2.4c3.4,0,5,2.1,5,5s-1.6,5-5,5H.2c-.1-.1-.2-.1-.2-.3Zm2.6-1c2.6,0,3.7-1.4,3.7-3.8s-1.2-3.8-3.7-3.8h-1.2v7.6s1.2,0,1.2,0Z" style="fill:#49535b;"/><path d="m9.6,81.1c0-.4.3-.8.8-.8.4,0,.8.3.8.8,0,.4-.3.8-.8.8-.4-.1-.8-.4-.8-.8Zm.2,2.6c0-.1.1-.2.2-.2h.9c.1,0,.2.1.2.2v6.5c0,.1-.1.2-.2.2h-1c-.1,0-.2-.1-.2-.2v-6.5h.1Z" style="fill:#49535b;"/><path d="m14,92.6c-.1-.1-.2-.2-.1-.3l.3-.5c.1-.1.2-.1.3-.1.6.4,1.3.5,2,.5,1.2,0,2.4-.6,2.4-2.2v-1c-.5.8-1.3,1.3-2.5,1.3-2,0-3.4-1.4-3.4-3.5s1.4-3.5,3.3-3.5c1.2,0,2,.5,2.5,1.3v-1c0-.1.1-.2.2-.2h.8c.1,0,.2.1.2.2v6.4c0,2.3-1.8,3.2-3.6,3.2-.9.1-1.8-.2-2.4-.6Zm2.5-3.4c1.3,0,2.3-.9,2.3-2.3s-.9-2.4-2.3-2.4c-1.3,0-2.3.9-2.3,2.3,0,1.5,1,2.4,2.3,2.4Z" style="fill:#49535b;"/><path d="m22.2,81.1c0-.4.3-.8.8-.8.4,0,.8.3.8.8,0,.4-.3.8-.8.8-.4-.1-.8-.4-.8-.8Zm.2,2.6c0-.1.1-.2.2-.2h.9c.1,0,.2.1.2.2v6.5c0,.1-.1.2-.2.2h-.9c-.1,0-.2-.1-.2-.2v-6.5Z" style="fill:#49535b;"/><path d="m26.5,88.9v-4.4h-.9c-.1,0-.2-.1-.2-.2v-.6c0-.1.1-.2.2-.2h.9v-1.6c0-.1.1-.2.2-.2h.9c.1,0,.2.1.2.2v1.6h1.2c.1,0,.2.1.2.2v.6c0,.1-.1.2-.2.2h-1.2v4.2c0,.5.2.7.6.7h.4c.2,0,.3.1.3.2v.6c0,.3-.6.3-1,.3-1,0-1.6-.5-1.6-1.6Z" style="fill:#49535b;"/><path d="m30.6,86.9c0-2.1,1.4-3.6,3.4-3.6,1.2,0,2.1.6,2.6,1.4v-1.1c0-.1.1-.2.2-.2h.8c.1,0,.2.1.2.2v6.5c0,.1-.1.2-.2.2h-.8c-.1,0-.2-.1-.2-.2v-1c-.5.9-1.4,1.4-2.6,1.4-2,.1-3.4-1.5-3.4-3.6Zm3.6,2.5c1.4,0,2.3-1,2.3-2.5s-.9-2.5-2.3-2.5-2.4,1-2.4,2.5c0,1.5,1,2.5,2.4,2.5Z" style="fill:#49535b;"/><path d="m40.1,90.2v-9.7c0-.1.1-.2.2-.2h.9c.1,0,.2.1.2.2v9.7c0,.1-.1.2-.2.2h-.9q-.2,0-.2-.2Z" style="fill:#49535b;"/><path d="m47.4,90.2v-5.7h-.8c-.1,0-.2-.1-.2-.2v-.6c0-.1.1-.2.2-.2h.8v-1.5c0-1.3.7-2,2-2,.3,0,.6,0,.8.1.1,0,.1.1.1.2v.8c0,.1-.1.1-.2.1h-.5c-.8,0-.9.5-.9,1v1.2h1.3c.1,0,.2.1.2.2v.6c0,.1-.1.2-.2.2h-1.4v5.7c0,.1-.1.2-.2.2l-1-.1q0,.2,0,0Z" style="fill:#49535b;"/><path d="m52,87.7v-4.1c0-.1.1-.2.2-.2h.9c.1,0,.2.1.2.2v3.9c0,1.2.6,1.8,1.7,1.8s1.8-.7,1.8-1.8v-3.9c0-.1.1-.2.2-.2h.9c.1,0,.2.1.2.2v6.5c0,.1-.1.2-.2.2h-.9c-.1,0-.2-.1-.2-.2v-.9c-.4.7-1.1,1.3-2.3,1.3-1.5.1-2.5-.9-2.5-2.8Zm1.7-7.3c.4,0,.7.3.7.7s-.3.7-.7.7-.7-.3-.7-.7.3-.7.7-.7Zm2.7,0c.4,0,.7.3.7.7s-.3.7-.7.7-.7-.3-.7-.7.3-.7.7-.7Z" style="fill:#49535b;"/><path d="m60.3,90.2v-6.5c0-.1.1-.2.2-.2h.8c.1,0,.2.1.2.2v.8c.3-.7.7-1.2,1.6-1.2.3,0,.5.1.6.1q.1.1.1.3v.7c0,.2-.1.2-.3.1-.2,0-.4-.1-.5-.1-1.2,0-1.6,1-1.6,1.8v3.9c0,.1-.1.2-.2.2h-.9c.1.1,0,.1,0-.1Z" style="fill:#49535b;"/><path d="m68.9,90.2v-9.5c0-.1.1-.2.2-.2h2.4c3.4,0,5,2.1,5,5s-1.6,5-5,5h-2.4c-.1-.1-.2-.1-.2-.3Zm2.5-1c2.6,0,3.7-1.4,3.7-3.8s-1.2-3.8-3.7-3.8h-1.2v7.6s1.2,0,1.2,0Z" style="fill:#49535b;"/><path d="m78.2,86.9c0-2,1.4-3.6,3.5-3.6s3.3,1.6,3.3,3.3c0,.6-.1.8-.6.8h-5c.2,1.2,1,2.1,2.6,2.1.8,0,1.3-.2,1.9-.6.1-.1.2-.1.2,0l.3.4c.1.1.1.2-.1.3-.6.6-1.5.9-2.5.9-2.1.1-3.6-1.5-3.6-3.6Zm5.7-.4c-.1-1.2-.9-2.1-2.1-2.1s-2.1.8-2.3,2.1h4.4Z" style="fill:#49535b;"/><path d="m86.9,87.7v-4.1c0-.1.1-.2.2-.2h.9c.1,0,.2.1.2.2v3.9c0,1.2.6,1.8,1.7,1.8s1.8-.7,1.8-1.8v-3.9c0-.1.1-.2.2-.2h.9c.1,0,.2.1.2.2v6.5c0,.1-.1.2-.2.2h-.8c-.1,0-.2-.1-.2-.2v-.9c-.4.7-1.1,1.3-2.3,1.3-1.6.1-2.6-.9-2.6-2.8Z" style="fill:#49535b;"/><path d="m95.9,88.9v-4.4h-.9c-.1,0-.2-.1-.2-.2v-.6c0-.1.1-.2.2-.2h.9v-1.6c0-.1.1-.2.2-.2h.9c.1,0,.2.1.2.2v1.6h1.2c.1,0,.2.1.2.2v.6c0,.1-.1.2-.2.2h-1.2v4.2c0,.5.2.7.6.7h.4c.2,0,.3.1.3.2v.6c0,.3-.6.3-1,.3-.9,0-1.6-.5-1.6-1.6Z" style="fill:#49535b;"/><path d="m100.1,89.5c-.1-.1-.1-.2,0-.4l.3-.4c.1-.1.2-.1.3,0,.5.5,1,.8,1.7.8s1.2-.3,1.2-1c0-.6-.4-.8-1-1.1l-.8-.4c-.9-.4-1.5-.9-1.5-1.9,0-1.2,1-1.9,2.2-1.9.8,0,1.6.3,2.1,1,.1.1.1.2,0,.3l-.3.4c-.1.1-.2.1-.3,0-.4-.4-.9-.6-1.4-.6-.6,0-1,.3-1,.9s.4.8,1,1l.8.3c.9.4,1.6.9,1.6,2,0,1.3-1.1,2-2.4,2-1.3.1-2-.4-2.5-1Z" style="fill:#49535b;"/><path d="m106.5,86.9c0-2.1,1.6-3.6,3.6-3.6,1.1,0,2,.5,2.6,1.2.1.1.1.2,0,.3l-.5.5c-.1.1-.2.1-.3,0-.4-.5-.9-.8-1.8-.8-1.4,0-2.4,1-2.4,2.5s1,2.5,2.5,2.5c.8,0,1.3-.3,1.7-.7.1-.1.2-.1.3,0l.5.5c.1.1.1.2,0,.3-.6.7-1.5,1.2-2.6,1.2-2-.2-3.6-1.8-3.6-3.9Z" style="fill:#49535b;"/><path d="m114.8,90.2v-9.7c0-.1.1-.2.2-.2h.9c.1,0,.2.1.2.2v4.1c.4-.7,1.1-1.3,2.3-1.3,1.5,0,2.5,1,2.5,2.8v4.1c0,.1-.1.2-.2.2h-.9c-.1,0-.2-.1-.2-.2v-3.9c0-1.2-.6-1.9-1.7-1.9s-1.8.7-1.8,1.9v3.9c0,.1-.1.2-.2.2h-.9q-.2,0-.2-.2Z" style="fill:#49535b;"/><path d="m123.1,90.2v-9.7c0-.1.1-.2.2-.2h.9c.1,0,.2.1.2.2v9.7c0,.1-.1.2-.2.2h-.9c-.1,0-.2,0-.2-.2Z" style="fill:#49535b;"/><path d="m126.4,86.9c0-2.1,1.4-3.6,3.4-3.6,1.2,0,2.1.6,2.6,1.4v-1.1c0-.1.1-.2.2-.2h.8c.1,0,.2.1.2.2v6.5c0,.1-.1.2-.2.2h-.8c-.1,0-.2-.1-.2-.2v-1c-.5.9-1.4,1.4-2.6,1.4-2,.1-3.4-1.5-3.4-3.6Zm3.6,2.5c1.4,0,2.3-1,2.3-2.5s-.9-2.5-2.3-2.5-2.4,1-2.4,2.5,1,2.5,2.4,2.5Z" style="fill:#49535b;"/><path d="m135.8,90.2v-6.5c0-.1.1-.2.2-.2h.8c.1,0,.2.1.2.2v.9c.4-.7,1.1-1.3,2.3-1.3,1.5,0,2.5,1,2.5,2.8v4.1c0,.1-.1.2-.2.2h-.9c-.1,0-.2-.1-.2-.2v-3.9c0-1.2-.6-1.9-1.7-1.9s-1.8.7-1.8,1.9v3.9c0,.1-.1.2-.2.2h-.8c-.1,0-.2,0-.2-.2Z" style="fill:#49535b;"/><path d="m143.8,86.9c0-2.1,1.4-3.6,3.4-3.6,1.1,0,2,.5,2.5,1.3v-4.2c0-.1.1-.2.2-.2h.9c.1,0,.2.1.2.2v9.7c0,.1-.1.2-.2.2h-.8c-.1,0-.2-.1-.2-.2v-1c-.5.9-1.4,1.4-2.6,1.4-2,.1-3.4-1.5-3.4-3.6Zm3.7,2.5c1.4,0,2.3-1,2.3-2.5s-.9-2.5-2.3-2.5-2.4,1-2.4,2.5,1,2.5,2.4,2.5Z" style="fill:#49535b;"/><path d="m17.4,73.6l-7.4-12h-1.8v11.7c0,.5-.3.8-.8.8H.8c-.5,0-.8-.3-.8-.8v-34.6c0-.5.3-.8.8-.8h11.1c8.7,0,12.9,4.9,12.9,11.9,0,5.1-2.2,9.1-6.8,10.9l8,12.5c.4.6.1.9-.5.9h-7.1c-.4,0-.8-.1-1-.5Zm-5.7-19.2c2.7,0,5.3-.9,5.3-4.6s-2.5-4.7-5.3-4.7h-3.5v9.3h3.5Z" style="fill:#127bac;"/><path d="m32.4,73.3v-34.6c0-.5.3-.8.8-.8h18.7c.5,0,.8.3.8.8v5.7c0,.5-.3.8-.8.8h-11.3v7.1h10.6c.5,0,.8.3.8.8v5.7c0,.5-.3.8-.8.8h-10.6v7.4h11.2c.5,0,.8.3.8.8v5.7c0,.5-.4.8-.8.8h-18.6c-.5-.2-.8-.5-.8-1Z" style="fill:#127bac;"/><path d="m57.6,56.2c0-10.7,8.4-18.7,18.6-18.7,5.3,0,9.6,2,12.7,5.2.4.5.4.9-.1,1.4l-3.8,4.1c-.4.5-.8.5-1.2.2-2-1.7-4.5-2.8-7.5-2.8-5.9,0-10.4,4.5-10.4,10.7s4.5,10.6,10.8,10.6c5.2,0,8.2-3,8.4-6.4h-8.5c-.5,0-.8-.4-.8-.8v-5.6c0-.5.3-.8.8-.8h15.7c.5,0,.8.3.8.8v3.7c0,9.4-6.3,17.1-16.6,17.1-10.5-.1-18.9-8.1-18.9-18.7Z" style="fill:#127bac;"/><path d="m99.4,73.3v-34.6c0-.5.3-.8.8-.8h6.6c.5,0,.8.3.8.8v34.7c0,.5-.3.8-.8.8h-6.6c-.5-.1-.8-.4-.8-.9Z" style="fill:#127bac;"/><path d="m114.4,56.2c0-10.5,8.4-18.7,18.6-18.7s18.7,8.2,18.7,18.7-8.4,18.6-18.7,18.6-18.6-8.2-18.6-18.6Zm18.6,10.6c5.9,0,10.4-4.6,10.4-10.6s-4.5-10.7-10.4-10.7-10.4,4.6-10.4,10.7c.1,6,4.6,10.6,10.4,10.6Z" style="fill:#127bac;"/><path d="m161.2,20.9l-1.2-.7c-.4-.2-.5-.7-.3-1l4.7-8.2-4.7-8.1h-9.3l-4.7,8.1,4.7,8.2c.2.4.1.8-.3,1l-1.2.7c-.4.2-.8.1-1-.3l-5.1-8.9c-.3-.5-.3-1,0-1.5l5.5-9.5c.3-.5.7-.7,1.3-.7h11c.5,0,1,.3,1.3.7l5.5,9.5c.3.5.3,1,0,1.5l-5.1,8.9c-.3.4-.8.5-1.1.3Z" style="fill:#79838c;"/><path d="m143.3,31.5h-10.7c-.3,0-.5-.1-.6-.4l-6-10.2c-.1-.2-.1-.5,0-.7l6-10.3c.1-.2.4-.4.6-.4h5.2c.4,0,.7.3.7.7v1.4c0,.4-.3.7-.7.7h-3.5c-.3,0-.5.1-.6.4l-4.2,7.3c-.1.2-.1.5,0,.7l4.2,7.3c.1.2.4.4.6.4h9c.4,0,.7.3.7.7v1.4c0,.7-.3,1-.7,1Z" style="fill:#79838c;"/><path d="m177.1,31.5h-10.3c-.4,0-.7-.3-.7-.7v-1.4c0-.4.3-.7.7-.7h9.4l4.7-8.1-4.7-8.1h-3.9c-.4,0-.7-.3-.7-.7v-1.4c0-.4.3-.7.7-.7h4.8c.5,0,1,.3,1.3.7l5.5,9.5c.3.5.3,1,0,1.5l-5.5,9.5c-.3.3-.8.6-1.3.6Z" style="fill:#79838c;"/><path d="m152.4,10.7c0-1.4,1.2-2.6,2.7-2.6s2.6,1.2,2.6,2.6c0,1.6-1.2,2.7-2.6,2.7s-2.7-1.1-2.7-2.7Z" style="fill:#127bac;"/><path d="m154.6,36c-.4,0-.7-.2-.9-.5l-2.6-4.1c-.2-.3-.1-.8.2-1l.7-.5c.3-.2.8-.1,1,.2l1.6,2.6h0l1.6-2.6c.2-.3.7-.4,1-.2l.7.5c.3.2.4.7.2,1l-2.6,4.1c-.2.3-.5.5-.9.5h0Z" style="fill:#127bac;"/></svg>
